<?xml version="1.0" encoding="utf-8"?>
<!-- Generator: Adobe Illustrator 19.1.0, SVG Export Plug-In . SVG Version: 6.00 Build 0)  -->
<svg version="1.0" xmlns="http://www.w3.org/2000/svg" xmlns:xlink="http://www.w3.org/1999/xlink" x="0px" y="0px"
	 viewBox="0 0 841.9 595.3" enable-background="new 0 0 841.9 595.3" xml:space="preserve">
<g id="Ebene_1">
	<g>
		<g>
			<path fill="#3F3F3F" d="M517.2,379.2c-28.9-7.9-48.2-28.9-60.6-45.1c8.6-9.7,18.8-25.3,19.6-51.5c24.2,0,28.6-2,38.6-17.4l9.8-15
				v-8.4l-10.6,16.1l-3.9,2.8c-6.5,4.7-7.7,5.6-18.5,5.6c-2.2,0-4.4-0.2-6.8-0.3c-2.3-0.2-4.7-0.3-7.2-0.3
				c-27.8,0-39.7,5.3-50.8,16.4c-2-5.2-4-11.4-5.6-16.6c0.1,0,0.1,0,0.2-0.1c10.4-3.7,34.8-12.3,34.8-32.3c0-11.9-11.5-22-25.2-22
				c-19.5,0-33.2,13.9-33.2,33.8c0,6.3,1.1,12.7,2.3,18.3c-14.5,5.5-49.3,21.7-49.3,52.4c0,26,23.7,36.4,44,37.5l20.8,1.1V353
				c1.1,0.1,2.1,0.1,3.2,0.1c11.6,0,18.1-3.5,22.2-6.6c13.8,17.7,34.7,39.1,59,45.8l0.9,0.3l31.9-9.7v-8.4L517.2,379.2z M430.2,222
				c5.5,0,8.7,3,8.7,8.1c0,13.8-11.9,21.1-20.3,25.3c-1.2-3.7-2.3-8.4-2.3-15.2C416.3,229.8,423.7,222,430.2,222z M372.5,315.4
				c0-16.3,10.5-30.8,30.3-41.9l-12,11.9l-5.5,2l-0.6,0.7c-4.8,5.7-10.4,14.6-10.4,24.7c0,12.5,5.7,23.3,15,30.6
				C381.2,338.8,372.5,330.3,372.5,315.4z M418,343.3c-18.1,0-32.8-13.7-32.8-30.4c0-11,6.1-17.9,9.8-21.9l9.4-10.5v-2.6
				c6.9,22.1,16.8,41.6,30.6,60.7C429.9,341.6,423.9,343.3,418,343.3z M430.8,291.5c7.1-6.4,13.9-9.3,30.9-9.3h0.3
				c0.9,3.8,1.4,7.3,1.4,10.5c0,11.3-4.5,22.9-12.8,33C443.2,315.6,435.9,303,430.8,291.5z"/>
			<g>
				<g>
					<path fill="#4D4C4C" d="M501,384.1l-0.9-0.3c-24.3-6.7-45.2-28.1-59-45.8c-4.1,3.1-10.6,6.6-22.2,6.6c-2.5,0-4.9-0.2-7.3-0.5
						l4.1,1.6l-20.8-1.1c-20.3-1.1-44-11.5-44-37.5c0-30.7,34.8-46.9,49.3-52.4c-1.2-5.6-2.3-12-2.3-18.3
						c0-19.9,13.6-33.8,33.2-33.8c13.7,0,25.2,10.1,25.2,22c0,20-24.4,28.6-34.8,32.3c-0.1,0-0.1,0-0.2,0.1
						c1.5,5.3,3.6,11.4,5.6,16.6c11.1-11.1,23-16.4,50.8-16.4c2.5,0,4.9,0.2,7.2,0.3c2.3,0.2,4.5,0.3,6.8,0.3
						c10.8,0,12-0.9,18.5-5.6l14.5-10.5l-9.8,15c-10,15.4-14.4,17.4-38.6,17.4c-0.8,26.2-11,41.7-19.6,51.5
						c12.9,16.9,33.2,38.9,64.2,46l12,2.8L501,384.1z M443.8,330.9l0.4,0.6c13,17.2,33.3,39,56.7,45.8l7.6-2.3
						c-28.2-10.1-46.9-31.5-58.8-47.5l-1.6-2.2l0.1-0.1l-0.5-0.7c-8.3-10.8-16.9-25.5-22.9-38.7l-0.1,0.1l-1.8-4.3l0,0l-0.2-0.5
						c-2.9-7.1-6.4-17.4-8.5-25.1l-0.8-2.9l0.3-0.1l-0.4-1.3c-1.5-4.4-3.5-10.3-3.5-19.8c0-8.4,3.6-15.4,8.5-19.7
						c-8.6,4.2-13.7,12.9-13.7,24.5c0,6.5,1.2,12.9,2.5,18.9l0.1-0.1l1.1,3.9c7.1,25.9,17.9,48,34.1,69.6L443.8,330.9z M403,265
						c-20,11.2-30.5,25.6-30.5,42c0,14.8,8.7,23.3,16.8,28c-9.3-7.3-15-18.1-15-30.6c0-10,5.7-19,10.4-24.7l0.6-0.7l19.1-7.1
						l-9.4,10.5c-3.7,4.1-9.8,10.9-9.8,21.9c0,16.8,14.7,30.4,32.8,30.4c5.9,0,11.9-1.7,17-4.8C420.3,309.7,410,288.9,403,265z
						 M385.6,268.9c-13.5,7.8-28.1,20.3-28.1,38.3c0,15.5,10,23.3,19.8,27.1c-6.3-6-11.4-14.8-11.4-27.3
						C365.9,296.3,369.7,282.1,385.6,268.9z M430.8,283.1c5.2,11.5,12.5,24.1,19.7,34.1c8.3-10.1,12.8-21.7,12.8-33
						c0-3.2-0.5-6.7-1.4-10.5h-0.3C444.7,273.8,437.8,276.7,430.8,283.1z M461.6,267.2h5.3l0.7,2.4c0.9,3.1,1.5,6,1.9,8.8
						c0.2-2.4,0.3-4.9,0.3-7.5v-3.3h6.1c13.7,0,19.9-0.5,24.5-3.5c-2.3,0.3-5,0.4-8.6,0.4c-2.5,0-4.9-0.2-7.2-0.3
						c-2.3-0.2-4.5-0.3-6.8-0.3c-14.5,0-24.1,1.4-31.6,4.5C450.4,267.6,455.5,267.2,461.6,267.2z M430.2,213.6
						c-6.6,0-13.9,7.8-13.9,18.2c0,6.8,1.1,11.5,2.3,15.2c8.5-4.2,20.3-11.5,20.3-25.3C439,216.6,435.7,213.6,430.2,213.6z
						 M443.1,213.1c1.6,2.3,2.5,5.2,2.5,8.6c0,10-4.9,17.3-10.8,22.6c7.9-4.3,15-10.5,15-19.6C449.7,220.2,447.1,216,443.1,213.1z"
						/>
				</g>
				<g>
					<path fill="#FFFFFF" d="M393.1,279.7c-3.7,4.1-11.2,11.8-11.2,24.7c0,18.3,15.7,33.7,36.1,33.7c7.5,0,15.5-2.6,21.7-7.3
						c-17.2-23-27.7-45.6-34.6-70.7c-10.1,5.2-35.9,19.8-35.9,46.9c0,22.8,18.5,31.6,25.8,34.4c-16.5-0.9-40.8-8.8-40.8-34.2
						c0-30.9,38.7-46.4,49.9-50.3c-1.5-6.7-2.8-13.5-2.8-20.4c0-18.3,12-30.5,29.9-30.5c12,0,21.9,8.8,21.9,18.7
						c0,19.8-27.9,27.3-35.7,30.3c1.9,7.1,5.4,17.4,8.4,24.7c11.8-13.1,22.4-19.1,52-19.1c4.7,0,9.2,0.6,14,0.6
						c11.4,0,13.3-1.1,20.4-6.2c-9.2,14.2-12.3,15.9-36.3,15.9H473c0,26.2-9.2,42.3-20.6,54.6c14,18.7,35,41.9,67.7,49.4l-19.1,5.8
						c-25.6-7.1-47.3-31.4-59.3-47.3c-3.9,3.2-9.7,8-22.8,8c-24.7,0-41.3-17-41.3-37c0-8.2,4.3-16.1,9.7-22.6L393.1,279.7z
						 M416.7,251.6c8.2-3.9,25.6-12,25.6-29.9c0-6.2-4.1-11.4-12-11.4c-8.2,0-17.2,9-17.2,21.5C413,241.5,415.2,247,416.7,251.6z
						 M461.6,270.5c-18.9,0-26.4,3.7-34.8,11.8c5.6,12.9,14.4,28.4,23.4,40.2c2.6-2.8,16.3-17.4,16.3-38.3c0-4.5-0.9-9.2-2.1-13.8
						H461.6z"/>
				</g>
			</g>
		</g>
		<g>
			<path fill="#D34040" d="M716.6,288.3l-13.7-17.9v17.9h-16.6c-5,0-9.4,1.6-13.1,4.9c-0.4,0.3-0.7,0.7-1.1,1c-2,2-3.5,4.2-4.5,6.7
				c-0.5,1.3-0.9,2.7-1.1,4.2c-0.2,1.1-0.3,2.2-0.3,3.3c0,0.6,0,1.2,0.1,1.9c0.1,1.3,0.4,2.8,0.9,4.2c0.8,2.4,2.1,4.9,4.4,7.3
				c0.7,0.8,1.5,1.5,2.4,2.2h-13l-7.1-0.1c-1.3,0-1.8-0.3-1.8-0.3l-0.6-0.6l-0.3-0.3l-4-3.9l-0.2-0.2l0.2-0.3l4-6l0.3-0.4l1.2-1.8
				l2.2-3.4l3.5-5.3l1.3-2l2.5-3.8v0l4.9-7.4l-3.8-5l-2.6-3.4l-2.6-3.4l-4.7-6.1l-11.9,17.9H639l-6.9,10.4v-10.4l-0.3-0.4l-4.3-5.6
				l-2.7-3.6l-2.7-3.5l-3.7-4.8v17.9H483.7c-3.9,0-7.6,0.7-10.9,2c-3.7,1.5-7.1,3.7-10.2,6.8c-0.9,0.9-1.7,1.7-2.4,2.7c0,0,0,0,0,0
				c-1.4,1.7-2.5,3.5-3.4,5.3c-0.6,1.3-1.2,2.7-1.6,4.1l-6-3.5h0l-4.7-2.8l-4.3-2.6c0,8.2,2.9,15.4,8.7,21.1
				c5.8,5.8,12.9,8.7,21.2,8.7h13.7v17.9h148.5v-9.8l-13.7-17.9l3.8,3.8c4,3.9,8.7,5.9,14,5.9l13.7,17.9H691l-13.7-17.9
				c5.5,0,10.3-2,14.2-5.9c3.3-3.3,5.2-7.3,5.7-11.8l0,0L711,328c0-4.5-1.5-10.5-7.8-15.6h13.3V288.3z M604.4,312.4h3.4v11.5h-3.4
				V312.4z M553.1,312.4h3.4v11.5h-3.4V312.4z M478.1,318.2c0-1.5,0.4-2.7,1.4-3.8c0.1-0.1,0.2-0.2,0.3-0.3c0.1-0.1,0.2-0.2,0.3-0.2
				c1.1-1,2.2-1.4,3.7-1.4h1.6v11.5h-1.6c-1.6,0-2.8-0.5-3.9-1.6c-0.2-0.2-0.3-0.4-0.5-0.6C478.5,320.7,478.1,319.6,478.1,318.2z"/>
			<g>
				<polygon fill="#CA3A3A" points="653.5,270.4 633.4,300.7 631,303.5 639.3,310.1 655.5,306 657.2,303.5 658.2,276.5 				"/>
			</g>
			<g>
				<polygon fill="#BA2121" points="689.6,294.5 703.3,312.4 716.6,312.4 702.9,294.5 				"/>
				<polygon fill="#BA2121" points="590.7,294.5 604.4,312.4 607.8,312.4 594.1,294.5 				"/>
				<polygon fill="#BA2121" points="539.4,294.5 553.1,312.4 556.5,312.4 542.8,294.5 				"/>
				<polygon fill="#BA2121" points="618.4,330.1 632.1,348.1 483.7,348.1 483.7,330.1 				"/>
				<polygon fill="#BA2121" points="650,348.1 691,348.1 677.3,330.1 636.3,330.1 				"/>
			</g>
			<g>
				<linearGradient id="SVGID_1_" gradientUnits="userSpaceOnUse" x1="630.933" y1="336.7151" x2="637.4783" y2="331.7108">
					<stop  offset="0" style="stop-color:#D34040"/>
					<stop  offset="0.2815" style="stop-color:#CA3534"/>
					<stop  offset="0.7263" style="stop-color:#BE2826"/>
					<stop  offset="1" style="stop-color:#BA2222"/>
				</linearGradient>
				<path fill="url(#SVGID_1_)" d="M650,348.1c-5.3,0-10-2-14-5.9l-3.8-3.8l-13.7-17.9l3.8,3.8c4,3.9,8.7,5.9,14,5.9L650,348.1z"/>
				<linearGradient id="SVGID_2_" gradientUnits="userSpaceOnUse" x1="707.1417" y1="322.9064" x2="684.8359" y2="339.9604">
					<stop  offset="0" style="stop-color:#D34040"/>
					<stop  offset="0.2815" style="stop-color:#CA3534"/>
					<stop  offset="0.7263" style="stop-color:#BE2826"/>
					<stop  offset="1" style="stop-color:#BA2222"/>
				</linearGradient>
				<path fill="url(#SVGID_2_)" d="M711,328c0,5.5-2,10.3-5.9,14.2c-3.9,3.9-8.6,5.9-14.2,5.9l-13.7-17.9c5.5,0,10.3-2,14.2-5.9
					c3.3-3.3,5.2-7.3,5.7-11.8l0,0L711,328z"/>
				<linearGradient id="SVGID_3_" gradientUnits="userSpaceOnUse" x1="440.0872" y1="324.158" x2="483.6815" y2="324.158">
					<stop  offset="0" style="stop-color:#D34040"/>
					<stop  offset="0.2815" style="stop-color:#CA3534"/>
					<stop  offset="0.7263" style="stop-color:#BE2826"/>
					<stop  offset="1" style="stop-color:#BA2222"/>
				</linearGradient>
				<path fill="url(#SVGID_3_)" d="M483.7,330.1v17.9c-19.6,0-43.6-4.6-43.6-47.8c0,8.2,2.9,15.4,8.7,21.1
					c5.8,5.8,12.9,8.7,21.2,8.7H483.7z"/>
				<linearGradient id="SVGID_4_" gradientUnits="userSpaceOnUse" x1="466.1606" y1="304.5173" x2="472.9921" y2="295.582">
					<stop  offset="0" style="stop-color:#D34040"/>
					<stop  offset="0.2815" style="stop-color:#CA3534"/>
					<stop  offset="0.7263" style="stop-color:#BE2826"/>
					<stop  offset="1" style="stop-color:#BA2222"/>
				</linearGradient>
				<path fill="url(#SVGID_4_)" d="M471.6,294.5V306H470c-1.6,0-2.8-0.5-3.9-1.6c-1.1-1.1-1.6-2.4-1.6-4.1c0-1.6,0.5-2.9,1.7-4.1
					c1.1-1.1,2.4-1.7,4-1.7H471.6z"/>
			</g>
			<g>
				<g>
					<path fill="#EA5252" d="M470,270.4c-8.2,0-15.3,3-21.1,8.8c-5.8,5.8-8.8,12.9-8.8,21.1c0,8.2,2.9,15.4,8.7,21.1
						c5.8,5.8,12.9,8.7,21.2,8.7h25.9v-59.8H470z M487.5,321.7H470c-6,0-11-2-15.2-6.3c-2.6-2.6-4.4-5.5-5.4-8.8
						c-0.1-0.3-0.2-0.7-0.3-1.1h0c-0.4-1.7-0.6-3.5-0.6-5.3c0-5.9,2.1-10.9,6.3-15.2c4.2-4.2,9.2-6.3,15.1-6.3h17.5v7.3H470
						c-3.8,0-7.3,1.4-10,4.2c-2.7,2.8-4.1,6.1-4.1,10c0,1.7,0.3,3.3,0.8,4.8c0.7,1.9,1.8,3.6,3.3,5.2c2.7,2.7,6.1,4.2,9.9,4.2H480
						v-11.9h7.4V321.7z M470,294.5h1.6V306H470c-1.6,0-2.8-0.5-3.9-1.6c-1.1-1.1-1.6-2.4-1.6-4.1c0-1.6,0.5-2.9,1.7-4.1
						C467.2,295,468.4,294.5,470,294.5z"/>
					<path fill="#EA5252" d="M547.3,330.1h-55.8v-59.8h55.8v24.2h-7.9V306h7.9V330.1z M499.9,321.7h39v-7.3h-31.5V302h23.6v-3.4
						h-23.6v-12.5h31.5v-7.3h-39V321.7z"/>
					<path fill="#EA5252" d="M598.6,330.1h-55.8v-59.8h55.8v24.2h-7.9V306h7.9V330.1z M551.2,321.7h39v-7.3h-31.5V302h23.6v-3.4
						h-23.6v-12.5h31.5v-7.3h-39V321.7z"/>
					<path fill="#EA5252" d="M640.2,305.9c-1.3,0-1.8-0.3-1.8-0.3l-5-5l8.2-12.4l11.9-17.9h-28.2l-3.2,4.8l-3.7,5.6v-10.4h-24.3
						v59.8h24.3v-9.8l3.8,3.8c4,3.9,8.7,5.9,14,5.9h15.2V306l-3.8,0L640.2,305.9z M643.1,321.7h-6.8c-3.1,0-5.7-1.1-8-3.5
						l-14.8-14.7l14.1-21.2l2.3-3.5h8l-6,9.1l-9.2,14l9.9,9.8c1.8,1.8,4.4,2.7,7.7,2.7l2.9,0V321.7z M602.5,278.8h7.4v42.9h-7.4
						V278.8z"/>
					<path fill="#EA5252" d="M662.3,295.7l-2.5,3.8c1.6,2.1,3.8,3.9,6.6,5.5l0.1,0.1c0.2-1.5,0.6-2.9,1.1-4.2
						C664.9,299.2,663.3,297.4,662.3,295.7z M672.6,270.4c-5.5,0-10.3,2-14.2,5.9c-0.1,0.1-0.2,0.2-0.2,0.2
						c-3.7,3.8-5.6,8.5-5.6,13.9c0,4.5,1.5,10.5,7.8,15.6H647v24.1h30.3c5.5,0,10.3-2,14.2-5.9c3.3-3.3,5.2-7.3,5.7-11.8l0,0
						c0.1-0.8,0.1-1.6,0.1-2.4c0-4.5-1.5-10.5-7.8-15.6h13.3v-24.2H672.6z M694.4,286.1h-17.3l-0.7,0.2c-2.2,0.7-3.6,2.7-3.6,5
						c0,0.6,0.1,1.3,0.3,1.9c0.1,0.4,0.3,0.7,0.5,1.1l0.6,1l7.1,4c6.7,3.8,7.5,8,7.5,10.9c0,3.2-1.1,5.9-3.4,8.2
						c-2.3,2.3-5,3.4-8.2,3.4h-21.8v-7.3h17.3l0.6-0.2c2.2-0.7,3.6-2.7,3.6-5c0-1-0.3-2-0.8-3l-0.6-1l-7.2-4
						c-0.3-0.2-0.5-0.3-0.8-0.5c-2.8-1.7-4.4-3.4-5.4-5.1v0c-1.1-2-1.3-3.8-1.3-5.3c0-2.7,0.8-5.1,2.4-7.1c0.3-0.4,0.6-0.7,1-1.1
						c2.3-2.3,5-3.4,8.2-3.4h21.8V286.1z"/>
				</g>
				<g>
					<path fill="#FFFFFF" d="M491.7,325.9H470c-7.1,0-13.2-2.5-18.2-7.5c-5-5-7.5-11.1-7.5-18.2c0-7.1,2.5-13.1,7.5-18.1
						c5-5,11.1-7.5,18.1-7.5h21.7v15.7H470c-2.7,0-5.1,1-7,2.9c-1.9,1.9-2.9,4.3-2.9,7c0,2.8,0.9,5.1,2.9,7c1.9,1.9,4.2,2.9,6.9,2.9
						h5.9v-11.9h15.9V325.9z"/>
					<path fill="#FFFFFF" d="M543,325.9h-47.4v-51.3H543v15.7h-31.5v4h23.6v11.8h-23.6v4H543V325.9z"/>
					<path fill="#FFFFFF" d="M594.4,325.9H547v-51.3h47.4v15.7h-31.5v4h23.6v11.8h-23.6v4h31.5V325.9z"/>
					<path fill="#FFFFFF" d="M647.3,325.9h-11c-4.2,0-7.9-1.6-11-4.7l-11-11v15.7h-15.9v-51.3h15.9v20.1l13.3-20.1h18.1L628,301.2
						l7.5,7.4c1,1,2.6,1.5,4.7,1.5l7.1,0.1V325.9z"/>
					<path fill="#FFFFFF" d="M698.7,290.3h-20.9c-0.5,0.2-0.7,0.5-0.7,1c0,0.3,0.1,0.5,0.2,0.8l6.2,3.5c6.4,3.6,9.6,8.4,9.6,14.6
						c0,4.4-1.5,8.1-4.6,11.2c-3.1,3.1-6.8,4.6-11.2,4.6h-26.1v-15.7h20.9c0.5-0.2,0.7-0.5,0.7-1c0-0.3-0.1-0.5-0.2-0.8l-6.2-3.5
						c-6.4-3.6-9.6-8.4-9.6-14.6c0-4.4,1.5-8.1,4.6-11.2c3.1-3.1,6.8-4.6,11.2-4.6h26.1V290.3z"/>
				</g>
			</g>
		</g>
		<g>
			<path fill="#2987C2" d="M396.9,281h-8.7v-4.5h8.7l12.7-20h-12.7v-1.5h-35v-20l-12.7,20v8.7h-6h-2.7h-6v-8.7h-35v-20l-12.7,20v8.7
				h-6v-8.7h-45.3h-2.3h-43.1h-2.2h-15.4v-20l-12.7,20v8.7h-4.5v-8.7H138v-20l-12.7,20v56.3h27h3.3l4.5-7.1v7.1h28.1h2.2h43.1h2.3
				H287h2.7h41.6h3.3l5.5-8.7h0.5v8.7h40.8h6.8l5.5-8.7h3.2l12.7-20l-12.7-1.1V281z M287,289.6h-6v-4.5h6V289.6z M347.3,289.6h-4
				v-4.5h4V289.6z"/>
			<g>
				<polygon fill="#1076AE" points="299.7,265.1 287,285.1 281.1,285.1 293.7,265.1 				"/>
				<polygon fill="#1076AE" points="361.9,265.1 349.3,285.1 343.3,285.1 356,265.1 				"/>
			</g>
			<g>
				<polygon fill="#1076AE" points="138,291.2 125.3,311.2 155.6,311.2 168.2,291.2 				"/>
				<polygon fill="#1076AE" points="172.7,291.2 160.1,311.2 334.6,311.2 347.3,291.2 				"/>
				<polygon fill="#1076AE" points="353.2,291.2 340.6,311.2 388.2,311.2 400.9,291.2 				"/>
				<polygon fill="#1076AE" points="353.2,282.5 340.6,302.5 340.1,302.5 347.3,291.2 347.3,282.5 				"/>
				<polygon fill="#1076AE" points="409.6,282.5 400.9,282.5 400.9,291.2 393.7,302.5 396.9,302.5 				"/>
				<polygon fill="#1076AE" points="409.6,256.4 400.9,256.4 400.9,260.9 406.7,260.9 				"/>
			</g>
			<g>
				<g>
					<path fill="#4D9DD7" d="M203,291.2h-30.2v-8.7h-4.5v8.7H138v-56.3h30.2v8.7h4.5v-8.7H203V291.2z M185.6,278.3h4.5v-30.6h-4.5
						v17.4h-8.7v4.5h8.7V278.3z M150.8,278.3h4.5v-17.4h8.7v-4.5h-8.7v-8.7h-4.5V278.3z"/>
					<path fill="#4D9DD7" d="M248.4,291.2h-47.6v-56.3h47.6V291.2z M213.7,278.3h4.5v-30.6h-4.5V278.3z"/>
					<path fill="#4D9DD7" d="M302.4,291.2h-56.3v-56.3h47.6v8.7h8.7v21.6h-8.7v4.5h8.7V291.2z M259,278.3h4.5v-8.7h17.4v-4.5h-17.4
						v-17.4H259V278.3z"/>
					<path fill="#4D9DD7" d="M347.3,291.2h-47.6v-56.3h47.6v8.7h8.7v38.9h-8.7V291.2z M312.5,278.3h4.5v-30.6h-4.5V278.3z
						 M338.6,269.6h4.5v-13.2h-4.5V269.6z"/>
					<polygon fill="#4D9DD7" points="400.9,291.2 353.2,291.2 353.2,269.6 361.9,269.6 361.9,265.1 353.2,265.1 353.2,243.6 
						361.9,243.6 361.9,234.9 409.6,234.9 409.6,256.4 400.9,256.4 400.9,260.9 409.6,260.9 409.6,282.5 400.9,282.5 					"/>
				</g>
				<g>
					<path fill="#FFFFFF" d="M144.4,284.7v-43.4h17.4v8.7h8.7v8.7h8.7v-17.4h17.4v43.4h-17.4V276h-8.7v-8.7h-8.7v17.4H144.4z"/>
					<path fill="#FFFFFF" d="M242,250h-17.4v8.7H242v8.7h-17.4v8.7H242v8.7h-34.7v-43.4H242V250z"/>
					<path fill="#FFFFFF" d="M252.5,284.7v-43.4h34.7v8.7h8.7v8.7h-8.7V276h8.7v8.7h-17.4V276h-8.7v8.7H252.5z M269.9,258.7h8.7V250
						h-8.7V258.7z"/>
					<path fill="#FFFFFF" d="M306.1,284.7v-43.4h34.7v8.7h8.7V276h-8.7v8.7H306.1z M332.2,250h-8.7V276h8.7V250z"/>
					<path fill="#FFFFFF" d="M359.7,284.7V276h26.1v-8.7h-17.4v-8.7h-8.7V250h8.7v-8.7h34.7v8.7h-26.1v8.7h17.4v8.7h8.7v8.7h-8.7
						v8.7H359.7z"/>
				</g>
			</g>
		</g>
	</g>
</g>
<g id="Ebene_2">
</g>
</svg>
