<?xml version="1.0" encoding="utf-8"?>
<!-- Generator: Adobe Illustrator 19.1.0, SVG Export Plug-In . SVG Version: 6.00 Build 0)  -->
<svg version="1.0" xmlns="http://www.w3.org/2000/svg" xmlns:xlink="http://www.w3.org/1999/xlink" x="0px" y="0px"
	 viewBox="0 0 214.4 79.9" enable-background="new 0 0 214.4 79.9" xml:space="preserve">
<g id="bg">
</g>
<g id="stars">
</g>
<g id="mic">
</g>
<g id="date">
</g>
<g id="slam">
</g>
<g id="earth">
</g>
<g id="logos">
</g>
<g id="invaders">
</g>
<g id="logo">
	<g>
		<g>
			<path fill="#FFFFFF" d="M11.2,36.6v-12h7.2V27h-4.8v7.2h4.8v2.4H11.2z M20.8,27v7.2h-2.4V27H20.8z"/>
			<path fill="#FFFFFF" d="M28,36.6v-12h2.4v12H28z"/>
			<path fill="#FFFFFF" d="M44.8,27H40v2.4h4.8v2.4H40v2.4h4.8v2.4h-7.2v-12h7.2V27z"/>
			<path fill="#FFFFFF" d="M64,27h2.4v2.4H64V27z M64,36.6v-2.4h7.2v2.4H64z M66.4,27v-2.4h7.2V27H66.4z M66.4,31.8h4.8v-2.4h-4.8
				V31.8z M71.2,31.8h2.4v2.4h-2.4V31.8z"/>
			<path fill="#FFFFFF" d="M83.2,34.2H88v2.4h-7.2v-12h2.4V34.2z"/>
			<path fill="#FFFFFF" d="M95.3,36.6V27h2.4v2.4h4.8V27h2.4v9.6h-2.4v-4.8h-4.8v4.8H95.3z M97.7,24.6V27h4.8v-2.4H97.7z"/>
			<path fill="#FFFFFF" d="M112,36.6v-12h2.4v12H112z M114.4,27h2.4v2.4h-2.4V27z M116.8,29.4h2.4v2.4h-2.4V29.4z M119.2,27h2.4v2.4
				h-2.4V27z M121.6,36.6v-12h2.4v12H121.6z"/>
			<path fill="#FFFFFF" d="M131.2,36.6v-12h2.4v12H131.2z"/>
			<path fill="#FFFFFF" d="M143.2,34.2h-2.4V27h2.4V34.2z M150.5,27h-7.2v-2.4h7.2V27z M148,36.6h-4.8v-2.4h4.8V36.6z M148,31.8
				h-2.4v-2.4h4.8v4.8H148V31.8z"/>
			<path fill="#FFFFFF" d="M157.7,36.6V27h2.4v2.4h4.8V27h2.4v9.6h-2.4v-4.8h-4.8v4.8H157.7z M160.1,24.6V27h4.8v-2.4H160.1z"/>
			<path fill="#FFFFFF" d="M174.5,36.6v-12h2.4v12H174.5z M176.9,27h2.4v2.4h-2.4V27z M179.3,29.4h2.4v2.4h-2.4V29.4z M181.7,31.8
				h2.4v2.4h-2.4V31.8z M184.1,36.6v-12h2.4v12H184.1z"/>
			<path fill="#FFFFFF" d="M193.7,27h2.4v2.4h-2.4V27z M193.7,36.6v-2.4h7.2v2.4H193.7z M196.1,27v-2.4h7.2V27H196.1z M196.1,31.8
				h4.8v-2.4h-4.8V31.8z M200.9,31.8h2.4v2.4h-2.4V31.8z"/>
		</g>
		<g>
			<path fill="#FFFFFF" d="M31,55.3v-10h6v2h-4v2h4v2h-4v4H31z M37,47.2h2v2h-2V47.2z"/>
			<path fill="#FFFFFF" d="M45,55.3v-10h6v2h-4v2h4v2h-4v4H45z M49,51.3h2v2h-2V51.3z M51,47.2h2v2h-2V47.2z M51,53.3h2v2h-2V53.3z"
				/>
			<path fill="#FFFFFF" d="M59.1,55.3v-6h2v1.5h4v-1.5h2v6h-2v-3h-4v3H59.1z M61.1,47.8v1.5h4v-1.5H61.1z"/>
			<path fill="#FFFFFF" d="M73.1,47.2h2v2h-2V47.2z M73.1,55.3v-2h6v2H73.1z M75.1,47.2v-2h6v2H75.1z M75.1,51.3h4v-2h-4V51.3z
				 M79.1,51.3h2v2h-2V51.3z"/>
			<path fill="#FFFFFF" d="M93.2,47.2h-4v2h4v2h-4v2h4v2h-6v-10h6V47.2z"/>
			<path fill="#FFFFFF" d="M99.2,55.3v-10h2v10H99.2z M101.2,47.2h2v2h-2V47.2z M103.2,49.3h2v2h-2V49.3z M105.2,51.3h2v2h-2V51.3z
				 M107.2,55.3v-10h2v10H107.2z"/>
			<path fill="#FFFFFF" d="M117.3,55.3v-8h-2v-2h6v2h-2v8H117.3z"/>
			<path fill="#FFFFFF" d="M127.3,55.3v-10h2v10H127.3z"/>
			<path fill="#FFFFFF" d="M141.3,47.2h-4v2h4v2h-4v2h4v2h-6v-10h6V47.2z"/>
			<path fill="#FFFFFF" d="M147.4,55.3v-10h6v2h-4v2h4v2h-4v4H147.4z M151.4,51.3h2v2h-2V51.3z M153.4,47.2h2v2h-2V47.2z
				 M153.4,53.3h2v2h-2V53.3z"/>
			<path fill="#FFFFFF" d="M167.4,47.2h-4v2h4v2h-4v2h4v2h-6v-10h6V47.2z"/>
			<path fill="#FFFFFF" d="M173.5,55.3v-10h2v10H173.5z M175.5,47.2h2v2h-2V47.2z M177.5,49.3h2v2h-2V49.3z M179.5,51.3h2v2h-2V51.3
				z M181.5,55.3v-10h2v10H181.5z"/>
			<g>
				<path fill="#FFFFFF" d="M59.1,45.2h2v2h-2V45.2z"/>
				<path fill="#FFFFFF" d="M65.1,45.2h2v2h-2V45.2z"/>
			</g>
		</g>
	</g>
</g>
<g id="sputnik">
</g>
</svg>
